#FILENAME=9c094e0c
# xmcd CD database file
# Copyright (C) 1995-1998 Ti Kan
#
# Track frame offsets:
#	182
#	17732
#	28687
#	43405
#	60690
#	81482
#	92797
#	105660
#	120495
#	143077
#	151977
#	165640
#
# Disc length: 2384 seconds
#
# Revision: 34554444
# Submitted via:  NotifyCDPlayer(CDDB) 1.51.3
#
DISCID=9c094e0c
DTITLE=Various Artists / The Rocky Horror Show (Selected Highlights)
TTITLE0=Anita Dobson / Science Fiction
TTITLE1=Tim Flavin & Kim Criswell / Damn It Janet
TTITLE2=Kim Criswell, Tim Flavin, Aidan Bell & Rocky Horror Show Cast /
TTITLE2=Over At
TTITLE2=Frankenstein's
TTITLE3=Howard Samuels, Tim Flavin & Rocky Horror Show Cast / Sweet
TTITLE3=Transvestite
TTITLE4=Rocky Horror Show Cast / The Time Warp
TTITLE5=Kim Criswell & Adam Criswell / Touch A-Touch A-Touch Me
TTITLE6=Tim Flavin & Kim Criswell / Once In A While
TTITLE7=Brian Greene, Christopher Lee & Rocky Horror Show Cast / Eddie's
TTITLE7=Teddy
TTITLE8=Howard Samuels / Rose Tint My World
TTITLE9=Howard Samuels & Rocky Horror Show Cast / Hot Patootie
TTITLE10=Howard Samuels & Rocky Horror Show Cast / I'm Going Home
TTITLE11=Tim Flavin, Kim Criswell & Rocky Horror Show Cast / Super Heroes
EXTD=\nYEAR: 1999  ID3G:  24
EXTT0=Anita Dobson
EXTT1=Tim Flavin & Kim Criswell
EXTT2=Kim Criswell, Tim Flavin, Aidan Bell\n& Phantoms Cast
EXTT3=Howard Samuels, Tim Flavin & Phantoms Cast
EXTT4=ms Cast
EXTT5=Kim Criswell & Adam Criswell
EXTT6=Tim Flavin & Kim Criswell
EXTT7=Brian Greene, Christopher Lee\n& Phantoms Cast
EXTT8=els
EXTT9=Howard Samuels & Phantoms Cast
EXTT10=Howard Samuels & Phantoms Cast
EXTT11=Tim Flavin, Kim Criswell & Phantoms Cast
PLAYORDER=
